<?xml version="1.0" standalone="no"?>
<!DOCTYPE svg PUBLIC "-//W3C//DTD SVG 20010904//EN"
 "http://www.w3.org/TR/2001/REC-SVG-20010904/DTD/svg10.dtd">
<svg version="1.0" xmlns="http://www.w3.org/2000/svg"
 width="2100.000000pt" height="1500.000000pt" viewBox="0 0 2100.000000 1500.000000"
 preserveAspectRatio="xMidYMid meet">
<metadata>
Created by potrace 1.16, written by Peter Selinger 2001-2019
</metadata>
<g transform="translate(0.000000,1500.000000) scale(0.100000,-0.100000)"
fill="#000000" stroke="none">
<path d="M9683 7632 c-13 -2 -23 -7 -23 -12 0 -5 -15 -13 -32 -18 -37 -9 -98
-90 -98 -129 0 -12 -4 -25 -10 -28 -12 -7 -14 -55 -2 -55 4 0 13 -19 20 -42 6
-24 22 -54 34 -68 22 -24 71 -60 82 -60 3 0 15 21 28 48 12 26 24 50 26 55 2
4 -15 7 -38 7 l-42 0 7 78 c4 42 9 80 12 85 11 18 23 -8 23 -49 0 -53 14 -60
17 -8 1 20 4 38 7 41 12 12 26 -11 26 -45 0 -24 3 -32 9 -24 4 7 6 23 4 36 -6
27 13 44 57 52 32 7 33 6 26 -22 -4 -16 -18 -39 -32 -51 -31 -28 -13 -30 30
-4 17 10 48 24 69 31 42 13 41 11 25 59 -13 36 -51 81 -69 81 -5 0 -12 6 -15
14 -3 8 -12 12 -20 9 -8 -3 -14 0 -14 7 0 9 -11 10 -36 5 -21 -3 -40 -3 -43 2
-3 5 -16 7 -28 5z"/>
<path d="M9320 7297 c0 -6 -3 -7 -7 -4 -3 4 -15 -7 -25 -23 -16 -27 -16 -35
-6 -70 7 -22 17 -38 23 -36 5 2 20 -1 33 -5 13 -5 22 -5 22 1 0 6 6 10 14 10
8 0 24 13 36 30 22 31 23 29 -23 80 -22 25 -67 36 -67 17z"/>
<path d="M11880 7198 c0 -18 -5 -50 -11 -71 -5 -20 -7 -42 -4 -48 4 -6 7 -69
7 -141 l0 -130 -30 -29 c-29 -29 -82 -127 -82 -153 0 -7 -3 -16 -7 -20 -11
-10 -12 -136 -2 -136 5 0 9 -12 9 -26 l0 -26 35 30 c19 17 50 34 70 38 34 6
35 7 35 54 0 62 13 97 53 138 53 56 101 75 173 70 80 -5 137 -42 176 -113 54
-98 22 -219 -74 -282 -35 -24 -52 -28 -112 -28 -59 0 -80 5 -125 28 -45 24
-58 27 -78 18 -35 -16 -25 -31 43 -69 67 -37 104 -76 104 -109 0 -16 6 -23 20
-23 18 0 19 -6 14 -102 l-5 -103 20 35 c15 25 20 54 21 103 0 64 1 67 24 67
43 0 81 21 109 60 22 32 78 93 214 235 10 11 10 14 0 18 -9 3 -9 10 2 30 11
21 12 32 3 50 -6 12 -13 38 -17 59 -3 20 -17 58 -31 85 -28 53 -111 143 -131
143 -7 0 -13 5 -13 10 0 6 -7 10 -15 10 -8 0 -15 4 -15 9 0 5 -9 7 -20 4 -11
-3 -20 -1 -20 4 0 6 -11 8 -25 5 -14 -2 -25 0 -25 5 0 4 -27 8 -60 8 -33 0
-60 -4 -60 -8 0 -5 -11 -6 -24 -3 -15 4 -26 1 -29 -7 -4 -9 -6 -9 -6 0 -1 7
-8 10 -16 7 -8 -4 -13 -10 -10 -14 3 -5 -10 -14 -29 -20 -19 -6 -37 -16 -40
-23 -2 -7 -5 43 -5 111 -1 108 1 123 17 129 22 9 51 44 47 58 -2 5 -6 22 -9
38 -4 15 -13 27 -20 27 -8 0 -22 7 -30 16 -15 14 -16 12 -16 -18z"/>
<path d="M9700 6892 c0 -10 5 -23 11 -29 8 -8 9 -36 5 -85 -14 -159 -18 -396
-7 -403 16 -9 13 -25 -4 -25 -8 0 -15 5 -15 10 0 6 -3 10 -7 10 -21 -1 -35
-21 -37 -55 -3 -31 2 -43 23 -61 14 -13 28 -24 31 -24 3 0 11 24 18 53 8 35
12 147 12 334 0 240 -2 282 -15 287 -10 3 -15 -1 -15 -12z"/>
<path d="M12095 6710 c11 -5 30 -9 43 -9 18 -1 23 -6 20 -23 -4 -27 -38 -38
-38 -13 0 26 -17 8 -24 -26 -5 -25 -10 -30 -26 -26 -10 3 -20 1 -22 -5 -2 -5
-22 -12 -46 -15 -47 -6 -57 -28 -18 -42 14 -6 26 -21 29 -38 4 -17 21 -39 47
-56 44 -31 50 -51 20 -69 -34 -21 -23 -29 37 -26 54 3 58 5 58 28 0 20 -6 26
-30 28 -38 5 -55 19 -48 40 12 35 37 52 87 59 46 6 48 8 21 13 -16 3 -40 2
-53 -4 -18 -7 -26 -6 -32 4 -11 17 -2 40 16 40 7 0 11 6 8 13 -3 8 2 20 11 27
8 7 15 21 15 31 0 13 7 19 24 19 41 0 58 -12 77 -54 10 -23 19 -35 19 -28 1
62 -108 143 -189 141 -23 0 -24 -1 -6 -9z"/>
<path d="M10824 6678 c-20 -10 -39 -17 -41 -14 -11 11 -111 -102 -118 -133 -3
-17 -11 -31 -16 -31 -6 0 -7 -4 -4 -10 3 -5 20 -10 36 -10 32 0 32 3 8 -90 -5
-19 -9 -46 -9 -60 0 -29 43 -81 87 -103 l29 -16 -8 67 c-6 43 -16 75 -29 88
-23 24 -25 57 -5 74 8 6 12 18 9 26 -3 8 0 14 7 14 7 0 25 11 42 25 33 28 64
32 93 11 11 -7 32 -16 46 -19 15 -4 44 -24 66 -46 l40 -39 17 34 c11 25 22 34
40 34 22 0 24 3 17 28 -14 46 -53 113 -70 120 -9 3 -30 16 -48 30 -18 13 -37
21 -43 17 -5 -3 -10 -1 -10 5 0 7 -7 10 -15 6 -8 -3 -15 -2 -15 2 0 16 -70 9
-106 -10z"/>
<path d="M14100 6309 c-25 -5 -58 -11 -75 -14 -161 -23 -434 -119 -560 -198
-11 -7 -38 -23 -61 -35 l-40 -24 -1 -132 c-1 -137 -8 -200 -23 -191 -10 6 -26
-83 -17 -91 3 -3 10 14 15 38 6 24 10 32 10 18 0 -38 -13 -75 -26 -73 -6 2
-14 -13 -18 -32 -3 -19 -12 -35 -19 -35 -7 0 -16 -8 -19 -17 -6 -14 -9 -15
-15 -4 -7 10 -10 9 -16 -8 -3 -12 -11 -19 -16 -15 -6 3 -8 13 -5 21 8 19 -17
43 -43 43 -11 0 -22 8 -24 18 -4 14 -6 13 -12 -6 -5 -15 -13 -21 -22 -18 -8 3
-17 6 -19 6 -3 0 -3 4 1 10 3 5 -2 18 -12 29 -13 15 -19 17 -25 8 -6 -9 -10
-8 -18 3 -6 10 -10 11 -10 3 0 -21 -18 -15 -25 8 -11 33 -47 70 -59 60 -6 -4
-30 -15 -53 -24 -37 -14 -42 -15 -47 -1 -8 22 -8 24 9 24 8 0 15 7 15 16 0 11
-6 15 -20 11 -14 -4 -20 0 -21 11 0 10 -3 12 -5 6 -3 -6 -16 -9 -29 -6 -16 3
-25 0 -25 -9 0 -8 -8 -4 -20 9 -11 12 -20 24 -20 27 0 14 -26 31 -39 27 -10
-3 -12 0 -8 12 8 19 5 19 -27 5 -14 -7 -22 -17 -19 -25 3 -8 1 -14 -5 -14 -14
0 -23 28 -12 35 17 10 11 28 -6 21 -11 -4 -15 -2 -11 6 2 7 -2 19 -9 26 -11
10 -14 10 -14 0 0 -8 -3 -9 -8 -3 -12 16 -32 16 -32 0 0 -8 -4 -15 -9 -15 -5
0 -14 7 -21 15 -10 12 -10 15 4 15 9 0 16 5 16 11 0 12 -43 1 -48 -12 -2 -5
-10 -9 -18 -9 -9 0 -13 4 -10 8 3 5 -7 15 -22 23 -39 20 -54 37 -46 50 4 8 3
9 -4 5 -7 -4 -12 -1 -12 8 0 9 -7 16 -16 16 -10 0 -14 6 -11 14 8 20 -3 27
-23 16 -13 -7 -25 -4 -43 10 -24 19 -57 18 -57 -2 0 -5 -4 -6 -10 -3 -5 3 -10
1 -10 -4 0 -6 -6 -11 -14 -11 -8 0 -18 -9 -21 -20 -3 -11 -11 -20 -16 -20 -6
0 -3 10 5 22 11 15 12 25 5 34 -7 9 -7 20 2 36 7 13 12 29 11 36 -2 6 1 12 7
12 5 0 12 -6 15 -12 3 -7 5 -4 4 7 -2 19 17 64 32 75 13 11 51 80 43 80 -4 0
-13 -8 -18 -18 -6 -10 -34 -54 -63 -98 -157 -232 -234 -492 -235 -799 -1 -173
8 -341 20 -370 4 -11 8 -44 8 -72 0 -33 5 -55 13 -58 6 -2 12 -12 12 -22 0
-24 49 -190 98 -332 37 -108 41 -115 78 -134 21 -11 43 -26 47 -34 5 -8 16
-11 28 -8 11 4 41 -1 67 -9 26 -9 52 -16 57 -17 6 -1 21 -6 35 -11 14 -5 36
-12 50 -14 14 -3 34 -8 45 -11 11 -4 25 -7 30 -8 25 -3 91 -18 100 -23 5 -4
30 -7 55 -9 29 -1 49 -9 57 -20 9 -11 13 -12 13 -4 0 16 71 6 81 -11 4 -7 9
-6 14 1 3 7 14 10 23 7 25 -8 99 -15 170 -17 45 -2 65 -6 72 -18 6 -10 10 -11
10 -3 0 8 23 12 80 12 44 0 80 2 80 5 0 5 -209 495 -217 508 -2 4 -23 -4 -46
-18 -23 -14 -61 -35 -84 -47 -24 -11 -43 -26 -43 -34 0 -7 11 -38 24 -69 19
-41 30 -55 46 -55 36 0 70 -47 70 -96 0 -35 -5 -47 -31 -68 -17 -14 -37 -26
-44 -26 -28 0 -67 25 -81 51 -18 36 -18 53 2 91 15 28 14 34 -6 89 -13 33 -26
62 -31 65 -5 3 -51 -11 -103 -30 -80 -30 -303 -97 -401 -120 -54 -13 -13 11
55 32 201 62 438 162 586 248 181 104 362 281 585 574 205 269 355 435 383
424 9 -3 19 3 26 16 7 14 15 19 21 13 6 -6 -29 -126 -94 -319 l-103 -309 38
-90 c22 -49 81 -189 133 -310 122 -288 149 -349 151 -354 2 -2 48 20 103 47
122 62 140 72 165 95 11 9 23 17 28 17 4 0 8 5 8 10 0 6 -55 137 -121 293 -67
155 -124 290 -126 299 -5 16 120 413 224 717 26 76 32 105 23 111 -8 5 -7 9 4
13 12 5 15 14 10 32 -3 14 -2 25 3 25 5 0 18 7 29 15 17 13 17 14 2 15 -10 0
-26 -8 -36 -18 -9 -9 -37 -25 -61 -34 -38 -15 -45 -16 -58 -2 -12 11 -18 12
-29 3 -11 -9 -14 -8 -14 4 0 13 -6 11 -26 -8 -15 -14 -23 -29 -18 -36 4 -8 3
-9 -4 -5 -7 4 -12 15 -12 24 0 10 -7 27 -15 39 -13 18 -13 22 -1 26 8 3 17 1
20 -6 2 -7 5 -2 5 10 1 12 -4 25 -10 28 -6 4 -8 13 -5 21 3 7 -2 17 -10 22
-14 8 -21 37 -23 95 -1 9 -8 17 -16 17 -8 0 -15 7 -15 15 0 8 -13 24 -30 37
-34 25 -40 42 -10 33 14 -5 20 -2 20 9 0 11 -9 16 -29 16 -17 0 -33 5 -36 10
-4 7 6 10 28 8 19 -1 41 3 49 9 7 6 22 13 33 16 37 9 -38 5 -85 -4z m200 -441
c1 -7 -59 -191 -131 -409 l-132 -397 80 -188 c70 -163 83 -188 103 -189 32 -3
70 -49 70 -86 0 -37 -23 -84 -45 -93 -46 -17 -91 -4 -110 35 -19 36 -19 63 1
100 15 30 14 34 -67 224 l-82 195 129 398 c100 311 133 402 149 409 28 15 35
15 35 1z"/>
<path d="M9667 6162 c-15 -32 -27 -68 -27 -79 0 -24 19 -41 29 -26 9 15 51 26
51 14 0 -6 -4 -11 -10 -11 -7 0 -10 -191 -10 -554 0 -585 -1 -566 41 -566 5 0
9 58 9 130 0 80 -4 130 -10 130 -5 0 -10 7 -10 15 0 8 5 15 10 15 6 0 10 42
10 105 0 61 -4 105 -10 105 -6 0 -11 133 -13 343 -5 327 -10 422 -26 432 -5 2
-20 -22 -34 -53z"/>
<path d="M10887 5578 c2 -244 4 -524 5 -623 l1 -180 7 140 c4 77 8 357 9 623
1 396 -1 482 -12 482 -11 0 -13 -78 -10 -442z"/>
<path d="M11879 6005 c-3 -5 -7 -215 -8 -465 -2 -328 0 -452 8 -444 8 7 10
147 9 465 -2 250 -6 450 -9 444z"/>
<path d="M14516 5942 c-3 -6 -2 -13 3 -17 6 -3 -4 -44 -23 -98 -19 -50 -84
-242 -146 -426 l-111 -335 122 -288 c67 -158 124 -288 126 -288 9 0 153 115
157 125 3 9 -126 326 -152 374 -5 8 -18 15 -31 16 -39 3 -74 48 -74 96 0 35 6
48 32 71 40 36 75 36 112 -1 33 -33 38 -75 15 -119 -13 -25 -10 -37 50 -177
102 -237 89 -215 118 -202 14 7 26 16 26 20 0 4 22 31 50 60 27 29 50 56 50
61 0 5 -11 34 -24 65 -14 31 -53 121 -86 201 -34 80 -68 159 -75 175 -8 17
-21 47 -29 68 -10 25 -21 37 -35 37 -26 0 -71 55 -71 88 0 36 34 90 65 104 18
8 32 8 54 -2 61 -25 79 -78 49 -139 -22 -45 -23 -41 27 -156 12 -27 55 -128
95 -222 63 -149 90 -198 90 -165 0 5 18 29 39 53 55 60 164 209 159 214 -3 3
-22 -20 -44 -50 -21 -30 -42 -55 -45 -55 -3 0 -4 12 -1 28 4 26 4 26 -12 7
-14 -17 -15 -18 -10 -2 8 22 -14 67 -33 67 -7 0 -13 10 -13 23 0 12 -7 31 -15
41 -8 11 -15 28 -15 37 0 10 -7 25 -16 34 -24 24 -11 28 18 6 39 -31 74 -36
119 -16 21 10 39 22 39 27 0 5 -11 1 -24 -7 -40 -27 -78 -26 -121 4 -51 34
-66 65 -63 123 2 35 0 44 -9 37 -14 -12 -8 -106 8 -126 13 -15 4 -33 -17 -33
-17 0 -19 17 -1 23 6 2 9 8 5 12 -4 4 -14 2 -22 -4 -10 -8 -16 -9 -21 -1 -3 5
1 13 9 16 9 3 16 12 16 19 0 7 -7 16 -16 19 -8 3 -13 10 -9 16 3 5 -10 33 -30
62 -19 29 -35 65 -35 80 0 16 -5 28 -11 28 -7 0 -8 -14 -4 -41 5 -29 4 -40 -4
-35 -6 4 -11 16 -11 26 0 11 -13 29 -30 42 -16 12 -30 26 -30 31 0 4 12 -1 27
-13 32 -25 45 -10 17 21 -9 10 -12 19 -7 19 6 0 16 -7 23 -15 7 -8 17 -15 23
-15 6 0 0 11 -13 25 -13 14 -27 25 -32 25 -17 0 -58 53 -58 76 0 12 -5 26 -10
29 -6 4 -8 11 -5 16 4 5 1 9 -6 9 -7 0 -9 3 -6 7 4 3 -2 12 -13 20 -11 8 -20
20 -20 26 0 7 -9 18 -20 25 -20 12 -27 50 -12 68 5 5 3 19 -3 32 -7 13 -16 19
-19 14z"/>
<path d="M13879 5542 c-179 -210 -321 -405 -311 -430 3 -9 27 -66 53 -127 43
-98 51 -111 78 -118 40 -10 61 -42 61 -93 0 -35 -5 -47 -31 -68 -53 -45 -109
-26 -130 44 -10 33 -9 43 8 72 l19 33 -44 105 c-24 58 -47 109 -52 113 -4 5
-21 -9 -36 -30 -16 -21 -33 -41 -38 -44 -4 -4 40 -120 99 -258 l108 -252 40
-16 c75 -30 85 -133 17 -168 -55 -29 -100 -10 -120 50 -9 28 -8 40 5 69 18 38
16 50 -20 131 -23 50 -119 277 -149 349 l-17 40 -74 -74 c-41 -41 -75 -80 -75
-88 0 -7 61 -154 136 -327 131 -302 138 -315 164 -315 49 0 233 37 343 69 59
18 112 29 116 26 5 -2 11 2 15 10 3 8 12 15 20 15 8 0 17 4 21 9 3 6 -67 178
-155 384 -88 206 -160 382 -160 390 0 9 38 132 84 274 93 285 99 303 94 302
-2 0 -33 -35 -69 -77z"/>
<path d="M13168 4707 l-47 -42 80 -185 c44 -102 97 -224 117 -273 l37 -87 63
4 c35 2 66 6 69 9 6 6 -17 63 -122 302 -29 66 -72 164 -95 218 -23 53 -45 97
-49 97 -3 0 -27 -20 -53 -43z"/>
</g>
</svg>
